<svg width="36" height="36" viewBox="0 0 36 36" fill="none" xmlns="http://www.w3.org/2000/svg">
<circle cx="18" cy="18" r="18" fill="#FE8D00"/>
<path d="M23.408 14.9181C23.611 14.7325 23.6258 14.4177 23.4412 14.2137L20.9448 11.4555C20.7588 11.25 20.4412 11.235 20.2366 11.4221L11.3419 19.5593C11.2641 19.6304 11.2108 19.7244 11.1896 19.8277L10.5712 22.8415C10.5048 23.1651 10.7648 23.463 11.0944 23.4409L14.1534 23.236C14.2666 23.2284 14.3738 23.1826 14.4575 23.106L23.408 14.9181ZM26.9201 11.2765L24.2425 8.21155L24.2367 8.20505C24.1781 8.14169 24.0966 8.10405 24.0102 8.10039C23.9237 8.09674 23.8394 8.12737 23.7756 8.18556L21.4657 10.2982C21.2626 10.4839 21.2478 10.7987 21.4324 11.0026L23.9281 13.7607C24.1141 13.9662 24.4318 13.9812 24.6363 13.7941L26.8947 11.7281C26.9574 11.671 26.9951 11.5918 26.9999 11.5074C27.0046 11.423 26.976 11.3401 26.9201 11.2765ZM9.90039 25.3006C9.90039 25.0244 10.1242 24.8006 10.4004 24.8006H26.3803C26.6565 24.8006 26.8803 25.0244 26.8803 25.3006V25.6001C26.8803 25.8762 26.6565 26.1001 26.3803 26.1001H10.4004C10.1242 26.1001 9.90039 25.8762 9.90039 25.6001V25.3006Z" fill="white"/>
</svg>
