<svg width="15" height="16" viewBox="0 0 15 16" fill="none" xmlns="http://www.w3.org/2000/svg">
<path d="M7.17383 12.1133C9.12196 12.1133 10.8672 12.3394 12.1094 12.6943C12.7336 12.8727 13.2025 13.0758 13.5039 13.2793C13.8228 13.4947 13.8477 13.6338 13.8477 13.6631C13.8476 13.6926 13.8224 13.8318 13.5039 14.0469C13.2025 14.2504 12.7336 14.4535 12.1094 14.6318C10.8672 14.9867 9.12196 15.2129 7.17383 15.2129C5.22573 15.2129 3.48042 14.9867 2.23828 14.6318C1.61407 14.4535 1.14515 14.2504 0.84375 14.0469C0.525301 13.8318 0.500065 13.6926 0.5 13.6631C0.5 13.6338 0.524884 13.4947 0.84375 13.2793C1.14513 13.0757 1.61403 12.8727 2.23828 12.6943C3.48042 12.3394 5.22573 12.1133 7.17383 12.1133Z" stroke="#14C2C0"/>
<path d="M7.2666 0C10.5254 0 13.168 2.4219 13.168 5.40918C13.1679 6.99546 12.4221 8.42178 11.2354 9.41113C11.1999 9.53789 11.1397 9.66247 11.0469 9.77637L8.04199 13.4629C7.64189 13.9538 6.89238 13.9536 6.49219 13.4629L3.4873 9.77637C3.39415 9.66208 3.3323 9.53738 3.29688 9.41016C2.11094 8.42085 1.36629 6.99484 1.36621 5.40918C1.36621 2.42199 4.00788 0.000136301 7.2666 0ZM7.2666 2.45801C5.63735 2.45815 4.31649 3.77894 4.31641 5.4082C4.31641 7.03754 5.6373 8.35826 7.2666 8.3584C8.89603 8.3584 10.2168 7.03763 10.2168 5.4082C10.2167 3.77885 8.89597 2.45801 7.2666 2.45801Z" fill="url(#paint0_linear_709_6225)"/>
<defs>
<linearGradient id="paint0_linear_709_6225" x1="7.26709" y1="0" x2="7.26709" y2="13.831" gradientUnits="userSpaceOnUse">
<stop stop-color="#29D55F"/>
<stop offset="1" stop-color="#0EBCD8"/>
</linearGradient>
</defs>
</svg>
