<svg width="15" height="15" viewBox="0 0 15 15" fill="none" xmlns="http://www.w3.org/2000/svg">
<path d="M13.9286 0H1.07143C0.428571 0 0 0.48 0 1.2V11.4C0 12.12 0.428571 12.6 1.07143 12.6H3.21429V15C4.60714 15 6 14.16 7.5 12.6H13.9286C14.5714 12.6 15 12.12 15 11.4V1.2C15 0.48 14.5714 0 13.9286 0ZM13.9286 11.4H7.07143L6.75 11.76C5.89286 12.72 5.03571 13.32 4.28571 13.56V11.4H1.07143V1.2H13.9286V11.4Z" fill="#7F7F7F"/>
<path d="M3.21387 6.36016C3.21387 6.67842 3.32675 6.98364 3.52768 7.20868C3.72861 7.43373 4.00114 7.56016 4.2853 7.56016C4.56946 7.56016 4.84198 7.43373 5.04291 7.20868C5.24384 6.98364 5.35672 6.67842 5.35672 6.36016C5.35672 6.0419 5.24384 5.73667 5.04291 5.51163C4.84198 5.28658 4.56946 5.16016 4.2853 5.16016C4.00114 5.16016 3.72861 5.28658 3.52768 5.51163C3.32675 5.73667 3.21387 6.0419 3.21387 6.36016Z" fill="#7F7F7F"/>
<path d="M6.42871 6.36016C6.42871 6.67842 6.54159 6.98364 6.74253 7.20868C6.94346 7.43373 7.21598 7.56016 7.50014 7.56016C7.7843 7.56016 8.05682 7.43373 8.25775 7.20868C8.45869 6.98364 8.57157 6.67842 8.57157 6.36016C8.57157 6.0419 8.45869 5.73667 8.25775 5.51163C8.05682 5.28658 7.7843 5.16016 7.50014 5.16016C7.21598 5.16016 6.94346 5.28658 6.74253 5.51163C6.54159 5.73667 6.42871 6.0419 6.42871 6.36016Z" fill="#7F7F7F"/>
<path d="M9.64258 6.36016C9.64258 6.67842 9.75546 6.98364 9.95639 7.20868C10.1573 7.43373 10.4298 7.56016 10.714 7.56016C10.9982 7.56016 11.2707 7.43373 11.4716 7.20868C11.6726 6.98364 11.7854 6.67842 11.7854 6.36016C11.7854 6.0419 11.6726 5.73667 11.4716 5.51163C11.2707 5.28658 10.9982 5.16016 10.714 5.16016C10.4298 5.16016 10.1573 5.28658 9.95639 5.51163C9.75546 5.73667 9.64258 6.0419 9.64258 6.36016Z" fill="#7F7F7F"/>
</svg>
