<svg width="24" height="39" viewBox="0 0 24 39" fill="none" xmlns="http://www.w3.org/2000/svg">
<path d="M0.10318 22.1049L6.21649 0.715061C6.33857 0.287929 6.72889 -0.00594566 7.17412 -0.00594566L18.8953 -0.00594567C19.5724 -0.00594557 20.057 0.651861 19.8547 1.29643L15.859 14.0292C15.6419 14.721 16.2133 15.4092 16.9348 15.3248L22.0196 14.7297C22.8576 14.6317 23.4375 15.551 22.9856 16.2612L8.80942 38.5415C8.25384 39.4147 6.89548 38.9642 6.96604 37.9302L7.90737 24.1348C7.94838 23.5338 7.4514 23.031 6.8492 23.0644L1.12532 23.3812C0.436904 23.4193 -0.0859119 22.7665 0.10318 22.1049Z" fill="#E75E34"/>
</svg>
