<svg width="15" height="15" viewBox="0 0 15 15" fill="none" xmlns="http://www.w3.org/2000/svg">
<path d="M12.8381 5.03571H10.3775C10.3775 5.03571 10.6985 3.96429 10.9124 2.03571C11.0194 1.07143 10.2705 0.107143 9.20067 0H8.9867C8.13082 0 7.5959 0.535714 7.27495 1.28571L6.63304 2.89286C6.09812 3.96429 5.67018 4.60714 5.34923 4.82143C4.92129 5.03571 3.31652 5.03571 3.20954 5.03571H1.06985C0.427938 5.03571 0 5.46429 0 6V14.0357C0 14.5714 0.427938 15 1.06985 15H11.8753C13.4801 15 13.908 13.9286 14.122 12.4286L14.9778 7.28571C15.0848 6.10714 14.8708 5.03571 12.8381 5.03571ZM3.20954 14.0357H1.06985V6H3.20954V14.0357ZM13.908 7.17857L13.0521 12.3214C12.8381 13.2857 12.8381 14.0357 11.7683 14.0357H4.27938V6C5.02827 6 5.45621 5.89286 5.77716 5.67857C6.31209 5.46429 6.84701 4.60714 7.5959 3.21429C8.02384 2.14286 8.23781 1.60714 8.34479 1.5C8.45178 1.17857 8.66575 0.964286 9.09369 0.964286H9.20067C9.73559 0.964286 9.94956 1.5 9.94956 1.82143C9.73559 3.53571 9.41464 4.60714 9.41464 4.60714L8.9867 6H13.0521C13.3731 6 13.587 6 13.801 6.21429C14.015 6.42857 13.908 6.85714 13.908 7.17857Z" fill="#7F7F7F"/>
</svg>
