<svg width="24" height="22" viewBox="0 0 24 22" fill="none" xmlns="http://www.w3.org/2000/svg">
<path d="M20.6018 8.41884H14.2874C14.8614 5.3522 16.0095 1.5554 13.5699 0.387159C10.9867 -0.781087 10.8432 0.82525 10.5562 3.4538C10.308 5.85348 7.26874 8.3624 6.45195 8.99659C6.32555 9.09473 6.25098 9.24368 6.25098 9.4037V21.9997H19.8842C21.7498 21.1235 22.8979 13.3839 23.4719 10.6093C24.0459 7.83472 20.6018 8.41884 20.6018 8.41884Z" fill="#F0F0F0"/>
<path d="M0.750977 10.4287C0.750977 9.87643 1.19869 9.42871 1.75098 9.42871H3.67949C4.23178 9.42871 4.67949 9.87643 4.67949 10.4287V21C4.67949 21.5523 4.23178 22 3.67949 22H1.75098C1.19869 22 0.750977 21.5522 0.750977 21V10.4287Z" fill="#F0F0F0"/>
</svg>
