<svg width="15" height="15" viewBox="0 0 15 15" fill="none" xmlns="http://www.w3.org/2000/svg">
<path d="M13.1184 14.0663C13.6397 14.0663 14.0625 13.6519 14.0625 13.1213V9.86252C14.0625 9.60565 14.28 9.39752 14.5313 9.39752C14.79 9.39752 15 9.61033 15 9.87565V13.1194C15.0026 14.1547 14.1659 14.9964 13.1306 15H1.86939C0.834901 14.9979 -0.00206049 14.1576 3.81036e-06 13.1232L2.22315e-05 13.1194V9.87567C-3.30622e-05 9.61523 0.208387 9.40265 0.468765 9.39754C0.727521 9.39754 0.937508 9.59817 0.937508 9.86254V13.1213C0.937508 13.6435 1.35938 14.0663 1.88157 14.0663H13.1184ZM8.4375 6.39192C1.75689 6.5813 0.937508 8.78723 0.937508 8.78723C0.937508 5.41037 3.71063 2.05602 9.37501 2.16102V1.24509L9.39281 1.2282H9.37501V1.01258C9.37501 -0.0139804 10.0153 -0.311164 10.8056 0.358199L14.6944 3.65632C15.09 3.99195 15.09 4.53569 14.6944 4.87132L10.8019 8.17785C10.0144 8.84535 9.37501 8.55473 9.37501 7.52535V6.37878C9.05532 6.37878 8.74689 6.38252 8.45063 6.39097L8.4375 6.37878V6.39192ZM9.37501 5.44506C9.8925 5.44506 10.3125 5.86319 10.3125 6.3788V7.35379L13.9687 4.26287L10.3125 1.16259V2.16008C10.3116 2.67682 9.89195 3.09495 9.37523 3.09402C9.36922 3.09401 9.36321 3.09394 9.3572 3.09382C5.84158 3.02819 3.37878 4.43069 2.37564 6.52505C3.73126 5.88756 5.93626 5.44694 9.37501 5.44694V5.44506Z" fill="#7F7F7F"/>
</svg>
