<svg width="21" height="13" viewBox="0 0 21 13" fill="none" xmlns="http://www.w3.org/2000/svg">
<path d="M10.8403 4.10815C9.5431 4.10815 8.53418 5.11707 8.53418 6.55839C8.53418 7.13491 8.82244 7.85557 9.25484 8.28797C9.61605 8.64918 10.1196 8.86449 10.8403 8.86449C12.1375 8.86449 13.1464 7.85557 13.1464 6.41426C13.1464 5.11707 12.1375 4.10815 10.8403 4.10815Z" fill="#CCCCCC"/>
<path d="M20.5675 6.05352C20.4233 5.90939 15.667 0 10.7665 0C5.86607 0 1.10973 5.76526 0.821466 6.05352L0.533203 6.48592L0.821466 6.91831C1.10973 7.06244 5.72193 12.9718 10.7665 12.9718C15.9553 12.9718 20.4233 7.20657 20.7116 6.91831L20.9999 6.48592L20.5675 6.05352ZM10.7665 10.2333C9.75762 10.2333 8.89283 9.80094 8.3163 9.08028C7.45151 8.35962 7.16325 7.49484 7.16325 6.48592C7.16325 4.46808 8.7487 2.7385 10.7665 2.7385C12.7844 2.7385 14.3698 4.46808 14.3698 6.48592C14.3698 8.50376 12.6402 10.2333 10.7665 10.2333Z" fill="#CCCCCC"/>
</svg>
