<svg width="80" height="80" viewBox="0 0 80 80" fill="none" xmlns="http://www.w3.org/2000/svg">
<path d="M40 0C62.09 0 80 17.91 80 40C80 62.09 62.09 80 40 80C17.91 80 0 62.09 0 40C0 17.91 17.91 0 40 0ZM40 20C39.1159 20 38.2681 20.3512 37.643 20.9763C37.0179 21.6014 36.6667 22.4493 36.6667 23.3333V43.3333L36.69 43.7233C36.7428 44.1718 36.8861 44.6048 37.1113 44.9961C37.3365 45.3875 37.6388 45.729 38 46L51.3333 56L51.6833 56.23C52.3887 56.6318 53.2163 56.7623 54.0111 56.5972C54.8058 56.4322 55.513 55.9827 56 55.3333L56.23 54.9833C56.6318 54.278 56.7623 53.4503 56.5972 52.6556C56.4322 51.8608 55.9827 51.1536 55.3333 50.6667L43.33 41.6667L43.3333 23.3333L43.31 22.9433C43.2145 22.1325 42.8247 21.3849 42.2146 20.8424C41.6045 20.2999 40.8164 20.0001 40 20Z" fill="#FE8D00"/>
</svg>
