<svg width="13" height="13" viewBox="0 0 13 13" fill="none" xmlns="http://www.w3.org/2000/svg">
<path d="M6.6955e-07 6.5C7.44905e-07 4.77609 0.68482 3.12279 1.90381 1.90381C3.12279 0.684819 4.77609 -3.59478e-07 6.5 -2.84124e-07C8.22391 -2.0877e-07 9.87721 0.684819 11.0962 1.90381C12.3152 3.12279 13 4.77609 13 6.5C13 8.22391 12.3152 9.87721 11.0962 11.0962C9.87721 12.3152 8.22391 13 6.5 13C4.77609 13 3.12279 12.3152 1.90381 11.0962C0.68482 9.87721 5.94196e-07 8.22391 6.6955e-07 6.5ZM8.385 5.27057L6.51393 7.384L4.615 5.27057C4.56663 5.21908 4.50823 5.17803 4.44339 5.14998C4.37855 5.12192 4.30865 5.10745 4.238 5.10745C4.16735 5.10745 4.09745 5.12192 4.03261 5.14998C3.96777 5.17803 3.90937 5.21908 3.861 5.27057C3.666 5.48785 3.666 5.86115 3.861 6.10907L6.123 8.658C6.17137 8.7095 6.22977 8.75054 6.29461 8.77859C6.35945 8.80665 6.42935 8.82113 6.5 8.82113C6.57065 8.82113 6.64055 8.80665 6.70539 8.77859C6.77023 8.75054 6.82863 8.7095 6.877 8.658L9.139 6.11C9.334 5.89272 9.334 5.52035 9.139 5.2715C9.09063 5.22 9.03223 5.17896 8.96739 5.1509C8.90255 5.12285 8.83265 5.10838 8.762 5.10838C8.69135 5.10838 8.62145 5.12285 8.55661 5.1509C8.49177 5.17896 8.43337 5.22 8.385 5.2715L8.385 5.27057Z" fill="#FE9227"/>
</svg>
