<svg width="14" height="15" viewBox="0 0 14 15" fill="none" xmlns="http://www.w3.org/2000/svg">
<path d="M6.96777 13.9121C6.85959 13.9199 6.65259 13.888 6.29297 13.7266V13.7256C5.83176 13.5047 5.63803 13.0302 5.66895 12.1807C5.69997 11.3288 5.9469 10.3548 6.13086 9.37207L6.24121 8.78027H1.74707L1.70605 8.78711C1.70423 8.7874 1.70047 8.78832 1.69531 8.78906C1.68453 8.79061 1.66657 8.79231 1.64355 8.79492C1.59718 8.80018 1.52904 8.80663 1.44824 8.80957C1.28169 8.8156 1.08269 8.80661 0.90625 8.76172C0.726938 8.71606 0.623163 8.64742 0.570312 8.57422C0.532093 8.52121 0.477645 8.40669 0.509766 8.16016L0.529297 8.0459C0.711282 7.16627 0.964633 5.6068 1.32324 4.1582C1.50144 3.4384 1.69941 2.77524 1.91504 2.26758C2.02285 2.01381 2.12924 1.81327 2.23047 1.66895C2.28907 1.58547 2.33896 1.53325 2.37598 1.5H10.0391V8.58008L10.0371 8.58594L10.0273 8.59766C9.7211 8.84089 9.12426 9.34362 8.58105 9.97363C8.05213 10.5872 7.50652 11.3975 7.41699 12.2529C7.37243 12.6611 7.33623 13.0004 7.2832 13.2832C7.2289 13.5727 7.16734 13.7398 7.10645 13.8301C7.06624 13.8896 7.03708 13.9071 6.96777 13.9121Z" stroke="white"/>
<path d="M13.4468 7.91309C13.4468 8.18923 13.2229 8.41309 12.9468 8.41309H11.9468C11.6706 8.41309 11.4468 8.18923 11.4468 7.91309V1.91309C11.4468 1.63694 11.6706 1.41309 11.9468 1.41309H12.9468C13.2229 1.41309 13.4468 1.63694 13.4468 1.91309V7.91309Z" stroke="white"/>
</svg>
