<svg width="15" height="14" viewBox="0 0 15 14" fill="none" xmlns="http://www.w3.org/2000/svg">
<path d="M7.479 0.500977C7.58718 0.49322 7.79419 0.525043 8.15381 0.686523V0.6875C8.61502 0.908356 8.80875 1.3829 8.77783 2.23242C8.7468 3.08426 8.49988 4.05824 8.31592 5.04102L8.20557 5.63281H12.6997L12.7407 5.62598C12.7425 5.62569 12.7463 5.62477 12.7515 5.62402C12.7622 5.62248 12.7802 5.62078 12.8032 5.61816C12.8496 5.6129 12.9177 5.60645 12.9985 5.60352C13.1651 5.59748 13.3641 5.60648 13.5405 5.65137C13.7198 5.69703 13.8236 5.76567 13.8765 5.83887C13.9147 5.89187 13.9691 6.0064 13.937 6.25293L13.9175 6.36719C13.7355 7.24682 13.4821 8.80629 13.1235 10.2549C12.9453 10.9747 12.7474 11.6378 12.5317 12.1455C12.4239 12.3993 12.3175 12.5998 12.2163 12.7441C12.1577 12.8276 12.1078 12.8798 12.0708 12.9131H4.40771V5.83301L4.40967 5.82715L4.41943 5.81543C4.72567 5.57219 5.32252 5.06947 5.86572 4.43945C6.39464 3.82593 6.94026 3.01555 7.02979 2.16016C7.07435 1.75203 7.11055 1.41264 7.16357 1.12988C7.21788 0.840425 7.27944 0.673327 7.34033 0.583008C7.38054 0.523493 7.40969 0.505955 7.479 0.500977Z" stroke="white"/>
<path d="M1 6.5C1 6.22386 1.22386 6 1.5 6H2.5C2.77614 6 3 6.22386 3 6.5V12.5C3 12.7761 2.77614 13 2.5 13H1.5C1.22386 13 1 12.7761 1 12.5V6.5Z" stroke="white"/>
</svg>
