<svg width="17" height="16" viewBox="0 0 17 16" fill="none" xmlns="http://www.w3.org/2000/svg">
<path d="M8.5 0C6.37827 0 4.34344 0.842855 2.84315 2.34315C1.34285 3.84344 0.5 5.87827 0.5 8C0.5 10.1217 1.34285 12.1566 2.84315 13.6569C4.34344 15.1571 6.37827 16 8.5 16C10.6217 16 12.6566 15.1571 14.1569 13.6569C15.6571 12.1566 16.5 10.1217 16.5 8C16.5 5.87827 15.6571 3.84344 14.1569 2.34315C12.6566 0.842855 10.6217 0 8.5 0ZM8.5 1.15942C10.3142 1.15942 12.0542 1.88012 13.337 3.16298C14.6199 4.44584 15.3406 6.18577 15.3406 8C15.3406 9.81424 14.6199 11.5542 13.337 12.837C12.0542 14.1199 10.3142 14.8406 8.5 14.8406C6.68577 14.8406 4.94584 14.1199 3.66298 12.837C2.38012 11.5542 1.65942 9.81424 1.65942 8C1.65942 6.18577 2.38012 4.44584 3.66298 3.16298C4.94584 1.88012 6.68577 1.15942 8.5 1.15942Z" fill="#999999"/>
<path d="M9.07934 7.42088V3.36291C9.07934 3.20916 9.01827 3.06171 8.90955 2.953C8.80083 2.84428 8.65338 2.7832 8.49963 2.7832C8.34588 2.7832 8.19843 2.84428 8.08972 2.953C7.981 3.06171 7.91992 3.20916 7.91992 3.36291V7.53683C7.91992 8.11283 8.3874 8.58031 8.9634 8.58031H13.1373C13.2911 8.58031 13.4385 8.51923 13.5472 8.41051C13.6559 8.3018 13.717 8.15434 13.717 8.00059C13.717 7.84685 13.6559 7.69939 13.5472 7.59068C13.4385 7.48196 13.2911 7.42088 13.1373 7.42088H9.07934Z" fill="#999999"/>
</svg>
