<svg width="15" height="15" viewBox="0 0 15 15" fill="none" xmlns="http://www.w3.org/2000/svg">
<path d="M11.1379 12.5484C9.97502 13.4195 8.53079 13.9356 6.96608 13.9356C3.11882 13.9356 0 10.816 0 6.96778C0 3.11958 3.11882 0 6.96608 0C10.8133 0 13.9322 3.11958 13.9322 6.96778C13.9322 8.53288 13.4163 9.97745 12.5453 11.1407L14.7098 13.3057C15.0966 13.6926 15.0979 14.3187 14.7066 14.7101C14.3179 15.0989 13.6822 15.0933 13.3024 14.7134L11.1379 12.5484ZM6.96608 11.9448C9.71412 11.9448 11.9418 9.71649 11.9418 6.96778C11.9418 4.21907 9.71412 1.99079 6.96608 1.99079C4.21804 1.99079 1.99031 4.21907 1.99031 6.96778C1.99031 9.71649 4.21804 11.9448 6.96608 11.9448Z" fill="#CCCCCC"/>
</svg>
