<svg width="21" height="13" viewBox="0 0 21 13" fill="none" xmlns="http://www.w3.org/2000/svg">
<path d="M3.55128 11.0797C2.87794 11.0797 2.27771 10.9641 1.75059 10.7328C1.22688 10.5016 0.810287 10.1802 0.50082 9.76872C0.194753 9.35383 0.0281169 8.87262 0.000910971 8.3251H1.28639C1.3136 8.66178 1.42922 8.95254 1.63327 9.19739C1.83731 9.43885 2.10427 9.62589 2.43414 9.75852C2.76401 9.89115 3.12959 9.95746 3.53088 9.95746C3.97978 9.95746 4.37766 9.87924 4.72454 9.72281C5.07142 9.56638 5.34348 9.34873 5.54072 9.06987C5.73796 8.79101 5.83658 8.46794 5.83658 8.10066C5.83658 7.71637 5.74136 7.378 5.55092 7.08553C5.36048 6.78967 5.08162 6.55842 4.71434 6.39178C4.34706 6.22515 3.89816 6.14183 3.36764 6.14183H2.53106V5.01958H3.36764C3.78253 5.01958 4.14641 4.94477 4.45928 4.79514C4.77555 4.6455 5.0221 4.43466 5.19894 4.1626C5.37918 3.89054 5.4693 3.57087 5.4693 3.20359C5.4693 2.84991 5.39109 2.54214 5.23465 2.28029C5.07822 2.01843 4.85717 1.81439 4.57151 1.66815C4.28925 1.52192 3.95597 1.44881 3.57169 1.44881C3.21121 1.44881 2.87114 1.51512 2.55147 1.64775C2.2352 1.77698 1.97674 1.96572 1.7761 2.21397C1.57545 2.45883 1.46663 2.75469 1.44963 3.10157H0.22536C0.245764 2.55405 0.4107 2.07454 0.720168 1.66305C1.02964 1.24816 1.43432 0.925092 1.93423 0.693842C2.43754 0.462592 2.99016 0.346966 3.59209 0.346966C4.23823 0.346966 4.79256 0.477895 5.25506 0.739752C5.71756 0.998208 6.07293 1.33998 6.32119 1.76508C6.56944 2.19017 6.69357 2.64927 6.69357 3.14238C6.69357 3.7307 6.53884 4.23231 6.22937 4.6472C5.9233 5.06209 5.50671 5.34946 4.9796 5.50929V5.59091C5.63934 5.69973 6.15455 5.98029 6.52523 6.43259C6.89591 6.88149 7.08125 7.43751 7.08125 8.10066C7.08125 8.66858 6.92652 9.17869 6.61705 9.63099C6.31099 10.0799 5.89269 10.4336 5.36218 10.692C4.83166 10.9505 4.22803 11.0797 3.55128 11.0797ZM12.8812 9.03907e-05L9.51448 12.508H8.41264L11.7794 9.03907e-05H12.8812ZM17.5526 11.0797C16.954 11.0797 16.415 10.9607 15.9355 10.7226C15.456 10.4846 15.0717 10.1581 14.7827 9.74321C14.4936 9.32832 14.3355 8.85562 14.3083 8.3251H15.5325C15.5801 8.79781 15.7944 9.18889 16.1753 9.49836C16.5595 9.80443 17.0186 9.95746 17.5526 9.95746C17.9811 9.95746 18.3619 9.85714 18.6952 9.65649C19.0319 9.45585 19.2954 9.18039 19.4859 8.83011C19.6797 8.47644 19.7766 8.07685 19.7766 7.63135C19.7766 7.17565 19.6763 6.76927 19.4757 6.41219C19.2784 6.05171 19.0064 5.76775 18.6595 5.5603C18.3126 5.35286 17.9164 5.24743 17.4709 5.24403C17.1513 5.24063 16.8231 5.28994 16.4864 5.39197C16.1498 5.49059 15.8726 5.61811 15.6549 5.77455L14.4715 5.63172L15.104 0.489797H20.5316V1.61204H16.1651L15.7978 4.69311H15.859C16.0732 4.52308 16.3419 4.38195 16.665 4.26972C16.988 4.1575 17.3247 4.10138 17.675 4.10138C18.3143 4.10138 18.8839 4.25442 19.3839 4.56048C19.8872 4.86315 20.2817 5.27804 20.5673 5.80516C20.8564 6.33227 21.0009 6.9342 21.0009 7.61095C21.0009 8.27749 20.8513 8.87262 20.552 9.39634C20.2561 9.91665 19.8481 10.3281 19.3277 10.6308C18.8074 10.9301 18.2157 11.0797 17.5526 11.0797Z" fill="white"/>
</svg>
