<?xml version="1.0" encoding="UTF-8"?>
<svg width="20" height="20" viewBox="0 0 20 20" fill="none" xmlns="http://www.w3.org/2000/svg">
  <path d="M10 2C5.58172 2 2 5.58172 2 10C2 14.4183 5.58172 18 10 18C14.4183 18 18 14.4183 18 10C18 5.58172 14.4183 2 10 2ZM10 4C13.3137 4 16 6.68629 16 10C16 13.3137 13.3137 16 10 16C6.68629 16 4 13.3137 4 10C4 6.68629 6.68629 4 10 4Z" fill="#FF4D4F"/>
  <path d="M6.70711 6.70711C7.09763 6.31658 7.7308 6.31658 8.12132 6.70711L10 8.58579L11.8787 6.70711C12.2692 6.31658 12.9024 6.31658 13.2929 6.70711C13.6834 7.09763 13.6834 7.7308 13.2929 8.12132L11.4142 10L13.2929 11.8787C13.6834 12.2692 13.6834 12.9024 13.2929 13.2929C12.9024 13.6834 12.2692 13.6834 11.8787 13.2929L10 11.4142L8.12132 13.2929C7.7308 13.6834 7.09763 13.6834 6.70711 13.2929C6.31658 12.9024 6.31658 12.2692 6.70711 11.8787L8.58579 10L6.70711 8.12132C6.31658 7.7308 6.31658 7.09763 6.70711 6.70711Z" fill="#FF4D4F"/>
</svg> 