<svg width="23" height="24" viewBox="0 0 23 24" fill="none" xmlns="http://www.w3.org/2000/svg">
<path d="M5.7919 9.91649C5.73228 9.91663 5.67327 9.92877 5.61824 9.9522C5.56321 9.97562 5.51323 10.0099 5.47117 10.053C5.42911 10.0962 5.39579 10.1474 5.3731 10.2037C5.35041 10.26 5.3388 10.3203 5.33894 10.3812C5.33908 10.4421 5.35097 10.5023 5.37391 10.5585C5.39686 10.6147 5.43042 10.6657 5.47267 10.7087C5.51493 10.7516 5.56506 10.7856 5.6202 10.8088C5.67533 10.832 5.7344 10.8438 5.79402 10.8437C5.85365 10.8436 5.91267 10.8316 5.96773 10.8082C6.02278 10.7848 6.0728 10.7506 6.11491 10.7075C6.15702 10.6644 6.1904 10.6133 6.21315 10.557C6.2359 10.5007 6.24758 10.4404 6.24751 10.3795C6.24744 10.3187 6.23563 10.2584 6.21275 10.2022C6.18987 10.146 6.15636 10.0949 6.11416 10.0519C6.07195 10.0089 6.02186 9.97481 5.96675 9.95157C5.91164 9.92834 5.85258 9.91642 5.79296 9.91649H5.7919ZM5.7919 12.4685C5.24984 12.4676 4.73023 12.2473 4.34703 11.8558C3.96383 11.4643 3.74832 10.9336 3.74776 10.3801C3.74832 9.8264 3.96398 9.29555 4.34741 8.90403C4.73084 8.5125 5.25071 8.2923 5.79296 8.29172C6.33503 8.29258 6.85463 8.51292 7.23783 8.90441C7.62103 9.2959 7.83654 9.82658 7.8371 10.3801C7.83654 10.9336 7.62103 11.4643 7.23783 11.8558C6.85463 12.2473 6.33503 12.4676 5.79296 12.4685H5.7919ZM11.727 9.91649C11.6674 9.91647 11.6083 9.92845 11.5532 9.95175C11.4981 9.97504 11.4481 10.0092 11.4059 10.0522C11.3637 10.0953 11.3303 10.1464 11.3074 10.2027C11.2846 10.2589 11.2729 10.3192 11.2729 10.3801C11.2729 10.441 11.2846 10.5013 11.3074 10.5575C11.3303 10.6138 11.3637 10.6649 11.4059 10.7079C11.4481 10.751 11.4981 10.7851 11.5532 10.8084C11.6083 10.8317 11.6674 10.8437 11.727 10.8437C11.8474 10.8437 11.9629 10.7948 12.048 10.7079C12.1331 10.6209 12.1809 10.503 12.1809 10.3801C12.1809 10.2572 12.1331 10.1393 12.048 10.0523C11.9629 9.96538 11.8474 9.91652 11.727 9.91649ZM11.727 12.4685C11.1848 12.4679 10.6649 12.2477 10.2815 11.8562C9.89803 11.4646 9.68237 10.9338 9.68181 10.3801C9.68237 9.8264 9.89803 9.29555 10.2815 8.90403C10.6649 8.5125 11.1848 8.2923 11.727 8.29172C12.2691 8.29258 12.7887 8.51292 13.1719 8.90441C13.5551 9.2959 13.7706 9.82658 13.7711 10.3801C13.7706 10.9336 13.5551 11.4643 13.1719 11.8558C12.7887 12.2473 12.2691 12.4676 11.727 12.4685ZM17.6611 9.91649C17.5406 9.91663 17.4252 9.96562 17.3402 10.0527C17.2551 10.1397 17.2074 10.2577 17.2076 10.3806C17.2077 10.5036 17.2557 10.6214 17.3409 10.7083C17.4262 10.7951 17.5417 10.8438 17.6621 10.8437C17.7825 10.8437 17.898 10.7948 17.9831 10.7079C18.0682 10.6209 18.116 10.503 18.116 10.3801C18.116 10.2572 18.0682 10.1393 17.9831 10.0523C17.898 9.96538 17.7825 9.91652 17.6621 9.91649H17.6611ZM17.6611 12.4685C17.119 12.4676 16.5994 12.2473 16.2162 11.8558C15.833 11.4643 15.6175 10.9336 15.6169 10.3801C15.6175 9.82658 15.833 9.2959 16.2162 8.90441C16.5994 8.51292 17.119 8.29258 17.6611 8.29172C18.2033 8.2923 18.7232 8.5125 19.1066 8.90403C19.49 9.29555 19.7057 9.8264 19.7063 10.3801C19.7057 10.9338 19.49 11.4646 19.1066 11.8562C18.7232 12.2477 18.2033 12.4679 17.6611 12.4685ZM2.65197 1.62477C2.06748 1.62477 1.59118 2.11111 1.59118 2.70794V17.4142C1.59118 18.0111 2.06748 18.4974 2.65197 18.4974H8.46084L11.3801 22.3265C11.3878 22.3422 11.3998 22.3554 11.4147 22.3642C11.4296 22.3731 11.4467 22.3773 11.4639 22.3763C11.4811 22.3773 11.4983 22.3731 11.5132 22.3642C11.5281 22.3554 11.5401 22.3422 11.5477 22.3265L11.6103 22.2322L14.467 18.4974H20.347C20.9325 18.4974 21.4088 18.0111 21.4088 17.4142V2.70794C21.4088 2.11111 20.9325 1.62477 20.348 1.62477H2.65197ZM11.4639 24C11.1781 24.0019 10.8966 23.9287 10.6464 23.7876C10.3962 23.6465 10.1857 23.4421 10.0351 23.1941L7.68435 20.1222H2.65197C1.94888 20.1213 1.27483 19.8358 0.777674 19.3281C0.280516 18.8204 0.000842182 18.1322 0 17.4142V2.70794C0 1.21533 1.1902 0 2.65197 0H20.347C21.8109 0 23 1.21533 23 2.70794V17.4142C23 18.9069 21.8109 20.1222 20.348 20.1222H15.2425L12.8928 23.1941C12.7421 23.4421 12.5316 23.6464 12.2814 23.7875C12.0312 23.9286 11.7497 24.0017 11.4639 24Z" fill="#1A1A1A"/>
</svg>
