<svg width="175" height="34" viewBox="0 0 175 34" fill="none" xmlns="http://www.w3.org/2000/svg">
<path d="M37.3085 0.162495H39.163V1.69289H45.9688V3.43934H39.163V5.2038H44.8705V11.4334H32.4473V5.2038H37.3085V0.162495ZM42.998 9.70496V6.95025H34.3198V9.70496H42.998ZM33.9777 12.7117C33.3055 14.2841 32.5553 15.6105 31.7271 16.6908L30.1787 15.5565C31.0429 14.5482 31.7871 13.3479 32.4113 11.9555L33.9777 12.7117ZM36.8584 12.5497C37.1825 13.606 37.5006 14.8423 37.8127 16.2587L35.9222 16.7088C35.7181 15.3644 35.442 14.0981 35.094 12.9098L36.8584 12.5497ZM40.5854 12.2976C41.0895 13.4859 41.5396 14.7943 41.9357 16.2226L40.0632 16.6728C39.7392 15.1364 39.325 13.798 38.8209 12.6577L40.5854 12.2976ZM44.1683 11.8655C45.2846 13.3419 46.1488 14.6202 46.761 15.7005L45.1766 16.7808C44.5524 15.5925 43.7062 14.2781 42.6379 12.8378L44.1683 11.8655ZM50.578 2.68315C50.3739 2.97122 50.1218 3.25329 49.8218 3.52936H52.1084V2.68315H50.578ZM49.6957 3.52936L48.7595 2.37707C49.4077 1.84893 49.8518 1.15275 50.0918 0.288527L51.5142 0.522588L51.2981 1.26078H52.1084V0.0544663H53.8008V1.26078H55.7633V2.68315H53.8008V3.52936H56.0154V5.00575H54.3589V6.28408C55.0551 6.04402 55.5772 5.85197 55.9253 5.70793L56.2134 7.04027C55.1932 7.48439 54.1249 7.86249 53.0086 8.17457L52.3604 6.80621C52.6365 6.66217 52.7745 6.48213 52.7745 6.26607V5.00575H51.8203C51.7363 5.91798 51.5622 6.61416 51.2981 7.09429C50.926 7.73045 50.3199 8.27659 49.4797 8.73271L48.4354 7.36436C49.1076 7.05228 49.5877 6.69218 49.8758 6.28408C50.0798 5.984 50.2179 5.55789 50.2899 5.00575H48.8135V3.52936H49.6957ZM57.9779 2.68315C57.7618 3.00723 57.5338 3.2893 57.2937 3.52936H59.7063V2.68315H57.9779ZM57.0596 3.52936L56.1954 2.44909C56.7956 1.92095 57.2037 1.18276 57.4197 0.234513L58.8421 0.468573L58.626 1.26078H59.7063V0.0544663H61.3808V1.26078H63.7394V2.68315H61.3808V3.52936H64.2075V5.00575H61.9209V6.06802C61.9209 6.32009 61.9989 6.44612 62.155 6.44612H62.6051C62.7491 6.44612 62.8691 6.41611 62.9652 6.3561C63.0612 6.30808 63.1392 5.99 63.1992 5.40185L64.6036 5.88797C64.4595 6.87223 64.2915 7.44238 64.0995 7.59842C63.8714 7.75446 63.4753 7.84448 62.9111 7.86849H61.6508C61.2067 7.86849 60.8766 7.73045 60.6606 7.45438C60.4325 7.17831 60.3185 6.84222 60.3185 6.44612V5.00575H59.6163C59.5323 5.76194 59.3702 6.33809 59.1302 6.73419C58.7821 7.26233 58.1879 7.73645 57.3477 8.15656L56.3214 6.84222C56.9696 6.59016 57.4257 6.29008 57.6898 5.94199C57.8458 5.72593 57.9719 5.41385 58.0679 5.00575H56.4655V3.52936H57.0596ZM62.479 8.33661V13.594H60.6786V9.99304H52.4684V13.774H50.686V8.33661H62.479ZM57.6898 13.3779C60.2945 13.894 62.5991 14.5002 64.6036 15.1964L63.5953 16.7808C61.3507 15.9286 59.0702 15.2684 56.7536 14.8003L57.6898 13.3779ZM57.7978 10.8573C57.5458 12.4537 56.7776 13.738 55.4932 14.7103C54.3529 15.5745 52.3484 16.2587 49.4797 16.7628L48.7235 14.9983C51.1721 14.6622 52.9306 14.1641 53.9988 13.5039C55.0671 12.8318 55.7273 11.8895 55.9794 10.6772L57.7978 10.8573ZM70.131 5.6179H71.8234V9.30886H75.5144V11.0013H71.8234V14.7103H70.131V11.0013H66.4221V9.30886H70.131V5.6179ZM83.3549 0.702634H93.2574V2.46709H89.2064V8.71471H93.8156V10.4972H89.2064V16.7088H87.3699V10.4972H82.8327V8.71471H87.3699V2.46709H83.3549V0.702634ZM92.9333 3.51136C92.5853 5.19179 92.1231 6.69818 91.547 8.03053L89.9806 7.47238C90.4727 6.3561 90.9108 4.89172 91.2949 3.07925L92.9333 3.51136ZM85.1193 3.13326C85.5994 4.48961 86.0256 6.002 86.3977 7.67044L84.7952 8.06654C84.4832 6.59016 84.057 5.12578 83.5169 3.6734L85.1193 3.13326ZM79.6279 0.144489C80.7442 1.00871 81.7164 1.88494 82.5447 2.77317L81.2483 4.08751C80.5761 3.2713 79.5919 2.38907 78.2956 1.44083L79.6279 0.144489ZM77.0712 5.34784H81.3564V12.7477C81.8125 12.3276 82.2926 11.8655 82.7967 11.3614L83.3189 13.3419C82.1786 14.4342 80.9963 15.3884 79.7719 16.2046L79.0698 14.5122C79.3818 14.2361 79.5379 13.912 79.5379 13.54V7.1483H77.0712V5.34784ZM106.833 0.000452993C107.817 2.16101 109.54 4.0515 112 5.67192L110.956 7.25633C108.747 5.77995 107.097 3.94947 106.005 1.76491C104.708 4.17753 103.088 6.05002 101.143 7.38236L100.099 5.77995C102.272 4.31557 103.958 2.38907 105.159 0.000452993H106.833ZM104.672 16.3847C103.256 16.3847 102.548 15.6285 102.548 14.1161V6.46412H104.42V9.30886C106.029 8.7087 107.577 7.86849 109.066 6.78821L110.146 8.3006C108.117 9.56092 106.209 10.5152 104.42 11.1633V13.72C104.42 14.3322 104.696 14.6382 105.249 14.6382H108.291C108.711 14.6382 109.024 14.5062 109.228 14.2421C109.492 13.9541 109.66 13.1198 109.732 11.7395L111.514 12.3336C111.334 14.3262 111.016 15.4965 110.56 15.8445C110.128 16.2046 109.486 16.3847 108.633 16.3847H104.672ZM97.5425 0.144489C98.6708 1.00871 99.6431 1.88494 100.459 2.77317L99.163 4.08751C98.4908 3.2713 97.5065 2.38907 96.2102 1.44083L97.5425 0.144489ZM95.0939 5.34784H99.289V12.8558C99.9732 12.2436 100.531 11.7275 100.963 11.3074L101.45 13.1799C100.225 14.3202 98.9709 15.3284 97.6866 16.2046L96.9844 14.5302C97.2965 14.2541 97.4525 13.9241 97.4525 13.54V7.1483H95.0939V5.34784Z" fill="white"/>
<path d="M4.43403 23.8556H5.21523V24.9229H9.48434V25.6711H5.21523V27.0685H8.72514V30.6004H1.44126V27.0685H4.43403V23.8556ZM7.93293 29.8632V27.8166H2.23346V29.8632H7.93293ZM2.09042 31.4036C1.66498 32.3718 1.18452 33.2007 0.649051 33.8902L-0.000117198 33.4171C0.550025 32.7716 1.02315 31.9941 1.41925 31.0845L2.09042 31.4036ZM3.81787 31.4036C4.03793 32.1224 4.23598 32.911 4.41202 33.7692L3.61982 33.9452C3.46578 33.021 3.28607 32.2251 3.08068 31.5576L3.81787 31.4036ZM6.11746 31.2935C6.44021 32.0271 6.72629 32.8449 6.97569 33.7472L6.19448 33.9232C5.97443 32.9843 5.69936 32.1591 5.36927 31.4476L6.11746 31.2935ZM8.37305 31.0735C9.04789 31.961 9.58336 32.7643 9.97946 33.4831L9.31929 33.9452C8.9452 33.219 8.41706 32.3975 7.73488 31.4806L8.37305 31.0735ZM12.3121 25.286C12.136 25.5281 11.9526 25.7334 11.7619 25.9021L11.3328 25.385C11.7583 25.0403 12.048 24.5671 12.202 23.9656L12.8292 24.0647C12.7852 24.2554 12.7228 24.4534 12.6422 24.6588H13.4674V23.8226H14.1936V24.6588H15.5029V25.286H14.1936V26.0562H15.6569V26.6944H14.5456V27.8276C14.9711 27.6809 15.3489 27.5379 15.6789 27.3985L15.8 27.9817C15.1545 28.2604 14.5273 28.4878 13.9185 28.6639L13.6434 28.0697C13.7901 27.989 13.8635 27.8973 13.8635 27.7946V26.6944H13.1263C13.0749 27.2958 12.9576 27.7543 12.7742 28.0697C12.5468 28.4438 12.158 28.7666 11.6079 29.038L11.1458 28.4548C11.6226 28.2568 11.9636 28.0147 12.169 27.7286C12.3304 27.4866 12.4331 27.1418 12.4771 26.6944H11.3438V26.0562H13.4674V25.286H12.3121ZM16.8342 25.286C16.6802 25.5354 16.4968 25.7591 16.2841 25.9572L15.855 25.44C16.2804 25.0586 16.5628 24.5561 16.7022 23.9326L17.3294 24.0317C17.2854 24.2077 17.223 24.4168 17.1423 24.6588H18.1106V23.8226H18.8257V24.6588H20.3772V25.286H18.8257V26.0562H20.6632V26.6944H19.1558V27.6736C19.1558 27.835 19.2255 27.9157 19.3649 27.9157H19.794C19.904 27.9157 19.9957 27.8973 20.0691 27.8607C20.1644 27.802 20.2268 27.5672 20.2561 27.1565L20.8613 27.3655C20.7953 27.9377 20.6999 28.2751 20.5752 28.3778C20.4358 28.4731 20.2194 28.5245 19.926 28.5318H19.1558C18.9358 28.5318 18.7634 28.4658 18.6387 28.3338C18.5287 28.2017 18.4737 28.033 18.4737 27.8276V26.6944H17.9015C17.8355 27.2005 17.7218 27.5819 17.5604 27.8386C17.3257 28.1614 16.9443 28.4438 16.4161 28.6859L15.965 28.1247C16.4271 27.9487 16.7535 27.7433 16.9443 27.5086C17.0983 27.3252 17.1973 27.0538 17.2413 26.6944H16.02V26.0562H18.1106V25.286H16.8342ZM19.5739 28.9499V32.0747H18.8037V29.6541H13.2803V32.1408H12.5211V28.9499H19.5739ZM16.6032 31.9647C18.1582 32.3168 19.5813 32.7569 20.8723 33.2851L20.4542 33.9452C19.0605 33.3511 17.6448 32.889 16.2071 32.5589L16.6032 31.9647ZM16.6142 30.3033C16.4601 31.2935 16.0017 32.0821 15.2388 32.6689C14.5566 33.197 13.35 33.6151 11.6189 33.9232L11.3108 33.197C12.8439 32.955 13.9442 32.6102 14.6117 32.1628C15.2865 31.7006 15.7009 31.0551 15.855 30.2263L16.6142 30.3033ZM24.4702 27.2005H25.2184V29.5991H27.617V30.3473H25.2184V32.7569H24.4702V30.3473H22.0606V29.5991H24.4702V27.2005ZM32.4524 24.3397H38.416V25.0879H35.8083V29.236H38.7461V29.9952H35.8083V33.9232H35.0381V29.9952H32.1443V29.236H35.0381V25.0879H32.4524V24.3397ZM38.1079 25.8251C37.8805 26.8741 37.5871 27.8093 37.2277 28.6309L36.5565 28.3998C36.8866 27.6736 37.1726 26.753 37.4147 25.6381L38.1079 25.8251ZM33.2996 25.7041C33.6077 26.4596 33.9011 27.3839 34.1799 28.4768L33.4977 28.6529C33.2776 27.7213 32.9842 26.8117 32.6175 25.9242L33.2996 25.7041ZM29.9548 23.9436C30.7103 24.5085 31.3375 25.0733 31.8363 25.6381L31.2971 26.1882C30.8423 25.6528 30.2115 25.0843 29.4046 24.4828L29.9548 23.9436ZM28.6344 27.2005H31.0111V32.0747C31.3631 31.7667 31.7409 31.4109 32.1443 31.0075L32.3644 31.8437C31.7189 32.4745 31.0331 33.0393 30.3069 33.5381L29.9988 32.8339C30.1675 32.6799 30.2519 32.5185 30.2519 32.3498V27.9597H28.6344V27.2005ZM46.6021 23.8336C47.2329 25.22 48.3149 26.4266 49.8479 27.4535L49.4188 28.1247C47.9884 27.1638 46.9322 25.9828 46.25 24.5818C45.4284 26.1515 44.3905 27.3655 43.1362 28.2237L42.7071 27.5526C44.0714 26.599 45.1314 25.3593 45.8869 23.8336H46.6021ZM45.4248 33.7362C44.6839 33.7362 44.3135 33.3327 44.3135 32.5259V27.7616H45.1057V29.7201C46.1913 29.3094 47.2366 28.7335 48.2415 27.9927L48.6926 28.6309C47.4163 29.4671 46.2207 30.0906 45.1057 30.5013V32.3608C45.1057 32.7789 45.2927 32.988 45.6668 32.988H47.6694C48.0141 32.988 48.2562 32.9073 48.3956 32.7459C48.5936 32.5479 48.7256 31.9757 48.7917 31.0295L49.5288 31.2715C49.4408 32.4452 49.2538 33.1567 48.9677 33.4061C48.7256 33.6261 48.3405 33.7362 47.8124 33.7362H45.4248ZM40.9026 23.9436C41.6581 24.5085 42.2853 25.0733 42.7841 25.6381L42.245 26.1882C41.7902 25.6528 41.1593 25.0843 40.3525 24.4828L40.9026 23.9436ZM39.6483 27.2005H41.9699V32.0857C42.344 31.7777 42.7658 31.3926 43.2352 30.9304L43.4333 31.7227C42.7804 32.3755 42.0506 32.9843 41.2437 33.5491L40.9356 32.8449C41.1117 32.6982 41.1997 32.5369 41.1997 32.3608V27.9597H39.6483V27.2005ZM50.7832 24.4938H60.5977V25.264H59.1453V32.7459C59.1453 33.4794 58.7932 33.8462 58.0891 33.8462H56.2516L56.0755 33.076C56.8824 33.1053 57.4619 33.12 57.814 33.12C58.1734 33.12 58.3531 32.9293 58.3531 32.5479V25.264H50.7832V24.4938ZM56.3396 26.9474V30.9855H52.8297V31.9537H52.0595V26.9474H56.3396ZM52.8297 30.2593H55.5804V27.6626H52.8297V30.2593ZM63.3924 26.1662H69.9831V28.3888H63.3924V26.1662ZM69.2239 27.7066V26.8484H64.1516V27.7066H69.2239ZM66.5612 23.8116C66.752 24.1124 66.917 24.4278 67.0564 24.7579H71.4575V25.506H61.907V24.7579H66.1871C66.0038 24.4424 65.8277 24.1747 65.659 23.9546L66.5612 23.8116ZM61.665 31.1725H66.4842V30.7434C67.2911 30.428 68.0943 30.1052 68.8938 29.7751H62.7323V29.06H70.4563V29.6321C69.598 30.0282 68.5344 30.472 67.2654 30.9635V31.1725H71.6996V31.8987H67.2654V32.922C67.2654 33.5895 66.939 33.9232 66.2862 33.9232H64.7348L64.5257 33.197C65.2079 33.2337 65.692 33.252 65.9781 33.252C66.3155 33.252 66.4842 33.065 66.4842 32.6909V31.8987H61.665V31.1725ZM72.9759 24.2737H82.4053V25.0109H78.0812V25.9682H81.4921V30.3253H77.9492C77.8172 31.0662 77.6008 31.6493 77.3 32.0747C78.8478 32.7276 80.6742 33.087 82.7794 33.153L82.5814 33.9122C80.3882 33.8242 78.4627 33.4024 76.8049 32.6469C76.042 33.2997 74.7804 33.7252 73.0199 33.9232L72.6788 33.197C74.2192 33.0723 75.3378 32.7606 76.0347 32.2618C75.3892 31.9024 74.7987 31.4953 74.2632 31.0405L74.8684 30.6224C75.3819 31.0478 75.9503 31.4219 76.5738 31.7447C76.8452 31.3559 77.036 30.8828 77.146 30.3253H73.9221V25.9682H77.289V25.0109H72.9759V24.2737ZM80.7109 29.6321V28.4658H78.0812V28.8509L78.0482 29.6321H80.7109ZM77.256 29.6321C77.278 29.3754 77.289 29.115 77.289 28.8509V28.4658H74.7034V29.6321H77.256ZM74.7034 27.8056H77.289V26.6503H74.7034V27.8056ZM78.0812 26.6503V27.8056H80.7109V26.6503H78.0812ZM89.3481 24.1747C89.1501 24.3948 88.941 24.6038 88.721 24.8019H91.8788V25.429C90.6905 27.5416 88.4862 28.7262 85.2661 28.9829L84.925 28.2678C85.9226 28.2017 86.8101 28.055 87.5877 27.8276C87.2429 27.4095 86.8835 27.0281 86.5094 26.6834L87.2026 26.3533C87.6207 26.7494 87.9948 27.1528 88.3249 27.5636C89.4692 27.1015 90.3531 26.4156 90.9766 25.506H87.7637C86.9055 26.0122 85.8896 26.3973 84.7159 26.6613L84.2538 25.9352C86.2197 25.5611 87.683 24.8495 88.644 23.8006L89.3481 24.1747ZM88.2258 30.6774C88.6733 31.1395 89.0731 31.6016 89.4252 32.0637C90.6355 31.5429 91.5964 30.7911 92.3079 29.8082H89.0511C88.0681 30.2776 86.9202 30.626 85.6072 30.8534L85.134 30.1492C87.5253 29.9072 89.2968 29.1773 90.4484 27.9597L91.1306 28.3338C90.8299 28.6345 90.5474 28.8839 90.2834 29.082H93.2982V29.7091C91.7358 32.3058 88.8237 33.6518 84.5619 33.7472L84.2428 32.988C85.9739 32.9733 87.4556 32.7606 88.688 32.3498C88.2919 31.829 87.9031 31.3816 87.5217 31.0075L88.2258 30.6774ZM96.0929 27.6846C95.7188 28.1981 95.2933 28.7042 94.8165 29.203L94.5855 28.4108C95.7665 27.0831 96.6284 25.5611 97.1712 23.8446L97.8863 24.1747C97.6296 24.9449 97.2959 25.7041 96.8851 26.4523V33.9232H96.0929V27.6846ZM97.6773 26.5183H99.8338C99.8485 26.2249 99.8559 26.0048 99.8559 25.8581V23.8666H100.626V25.8581C100.626 26.0048 100.619 26.2249 100.604 26.5183H104.4V27.2885H102.166V32.7239C102.166 32.922 102.269 33.021 102.475 33.021H103.388C103.52 33.021 103.633 32.9623 103.729 32.8449C103.832 32.6762 103.901 32.0931 103.938 31.0955L104.653 31.3266C104.58 32.4855 104.459 33.186 104.29 33.4281C104.121 33.6335 103.887 33.7398 103.586 33.7472H102.254C101.69 33.7472 101.407 33.4538 101.407 32.8669V27.2885H100.56C100.318 30.2299 99.4341 32.4305 97.9083 33.8902L97.3252 33.3841C98.7482 32.0344 99.5698 30.0025 99.7898 27.2885H97.6773V26.5183ZM102.133 24.0427C102.83 24.5195 103.424 25.0109 103.916 25.517L103.377 26.0672C102.959 25.5904 102.376 25.0806 101.627 24.5378L102.133 24.0427ZM105.819 24.5488H110.298V23.8116H111.09V24.5488H115.568V25.231H111.09V25.8581H114.578V29.049H114.061C114.721 29.6211 115.216 30.1016 115.546 30.4903L114.963 30.8974C114.816 30.7067 114.611 30.472 114.347 30.1933C112.322 30.3326 109.601 30.4463 106.182 30.5343L106.083 29.8302C107.925 29.8008 109.329 29.7751 110.298 29.7531V29.049H106.81V25.8581H110.298V25.231H105.819V24.5488ZM113.334 29.214L113.609 29.049H111.09V29.7311C112.036 29.7018 112.935 29.6688 113.785 29.6321L113.334 29.214ZM113.818 28.4548V27.7176H111.09V28.4548H113.818ZM110.298 28.4548V27.7176H107.569V28.4548H110.298ZM107.569 27.1785H110.298V26.4633H107.569V27.1785ZM111.09 26.4633V27.1785H113.818V26.4633H111.09ZM107.525 31.1285C107.261 32.0527 106.887 32.8559 106.403 33.5381L105.742 33.12C106.234 32.4598 106.59 31.7483 106.81 30.9855L107.525 31.1285ZM109.296 33.7472C108.651 33.7472 108.328 33.4391 108.328 32.8229V30.8974H109.098V32.6579C109.098 32.9 109.241 33.021 109.527 33.021H112.058C112.263 33.021 112.41 32.9696 112.498 32.8669C112.608 32.7423 112.685 32.3902 112.729 31.8107L113.455 32.0417C113.382 32.8413 113.243 33.3327 113.037 33.5161C112.861 33.6702 112.582 33.7472 112.201 33.7472H109.296ZM110.683 30.6774C111.218 31.1615 111.651 31.609 111.981 32.0197L111.387 32.4378C111.042 31.9831 110.609 31.5173 110.088 31.0405L110.683 30.6774ZM114.006 30.7544C114.717 31.5466 115.278 32.2655 115.689 32.911L115.062 33.3291C114.666 32.6836 114.116 31.9537 113.411 31.1395L114.006 30.7544ZM120.574 25.517H122.577V23.8556H123.347V25.517H125.691V28.8179H126.56V29.5881H123.556C124.245 31.1065 125.327 32.3241 126.802 33.241L126.263 33.8572C124.774 32.8229 123.681 31.5246 122.984 29.9622C122.492 31.7153 121.509 33.01 120.035 33.8462L119.551 33.197C120.967 32.4415 121.884 31.2385 122.302 29.5881H120.057V28.8179H122.456C122.536 28.2898 122.577 27.7543 122.577 27.2115V26.2542H120.574V25.517ZM123.347 26.2542V27.0464C123.347 27.6479 123.307 28.2384 123.226 28.8179H124.92V26.2542H123.347ZM117.658 26.0012C117.622 27.1088 117.49 28.1577 117.262 29.148L116.613 28.9609C116.863 28 117.002 26.9988 117.031 25.9572L117.658 26.0012ZM119.782 25.6931C120.075 26.3679 120.347 27.1858 120.596 28.1467L119.947 28.3118C119.742 27.4609 119.489 26.654 119.188 25.8911L119.782 25.6931ZM118.209 23.8666H118.99V33.8792H118.209V23.8666ZM134.614 29.7421C135.751 31.2092 136.609 32.4708 137.189 33.5271L136.517 34.0002C136.319 33.6335 136.132 33.3071 135.956 33.021C133.404 33.2851 130.983 33.4831 128.694 33.6151L128.551 32.966C129.498 32.4452 130.466 31.1982 131.456 29.225H127.803V28.4548H132.292V26.3753H128.496V25.6051H132.292V23.8556H133.106V25.6051H136.88V26.3753H133.106V28.4548H137.585V29.225H132.336C131.559 30.8681 130.767 32.0821 129.96 32.8669C132.718 32.6469 134.581 32.4782 135.549 32.3608C135.109 31.6933 134.584 30.9561 133.976 30.1492L134.614 29.7421ZM139.543 25.8581H143.031L143.372 25.0549C142.294 25.1209 141.128 25.154 139.873 25.154L139.642 24.4938C142.767 24.4938 145.356 24.2847 147.41 23.8666L147.773 24.4938C146.754 24.7212 145.54 24.8899 144.131 24.9999C144.051 25.242 143.944 25.5281 143.812 25.8581H147.905V26.5403H143.493C143.405 26.7164 143.266 26.9658 143.075 27.2885H148.543V27.9927H142.591C142.371 28.2861 142.169 28.5392 141.986 28.7519H147.443V33.9342H146.684V33.4611H141.711V33.9342H140.951V29.8082C140.35 30.351 139.73 30.8388 139.092 31.2715L138.663 30.5894C139.873 29.7678 140.863 28.9023 141.634 27.9927H138.949V27.2885H142.184C142.367 27.0244 142.529 26.775 142.668 26.5403H139.543V25.8581ZM141.711 30.7544V31.4476H146.684V30.7544H141.711ZM146.684 30.1382V29.4011H141.711V30.1382H146.684ZM141.711 32.0637V32.8119H146.684V32.0637H141.711ZM150.546 25.8581H154.034L154.375 25.0549C153.297 25.1209 152.13 25.154 150.876 25.154L150.645 24.4938C153.77 24.4938 156.359 24.2847 158.413 23.8666L158.776 24.4938C157.756 24.7212 156.543 24.8899 155.134 24.9999C155.053 25.242 154.947 25.5281 154.815 25.8581H158.908V26.5403H154.496C154.408 26.7164 154.269 26.9658 154.078 27.2885H159.546V27.9927H153.594C153.374 28.2861 153.172 28.5392 152.989 28.7519H158.446V33.9342H157.687V33.4611H152.714V33.9342H151.954V29.8082C151.353 30.351 150.733 30.8388 150.095 31.2715L149.666 30.5894C150.876 29.7678 151.866 28.9023 152.636 27.9927H149.952V27.2885H153.187C153.37 27.0244 153.531 26.775 153.671 26.5403H150.546V25.8581ZM152.714 30.7544V31.4476H157.687V30.7544H152.714ZM157.687 30.1382V29.4011H152.714V30.1382H157.687ZM152.714 32.0637V32.8119H157.687V32.0637H152.714ZM164.134 24.7358V32.6359H163.364V32.0417H161.934V32.8669H161.142V24.7358H164.134ZM161.934 31.2715H163.364V25.506H161.934V31.2715ZM167.16 25.0989H165.818V28.5538H167.16V25.0989ZM167.897 28.5538H169.295V25.0989H167.897V28.5538ZM170.065 24.3618V29.291H165.818V32.2398C165.818 32.7312 166.027 32.977 166.445 32.977H169.119C169.383 32.9623 169.57 32.8303 169.68 32.5809C169.761 32.3828 169.83 31.8694 169.889 31.0405L170.626 31.2825C170.56 32.0821 170.476 32.6359 170.373 32.944C170.212 33.4501 169.871 33.7142 169.35 33.7362H166.148C165.414 33.7362 165.048 33.3291 165.048 32.5149V24.3618H170.065ZM173.454 24.9669H174.477L174.301 30.7104H173.619L173.454 24.9669ZM173.96 31.5136C174.158 31.5136 174.319 31.5759 174.444 31.7006C174.569 31.8253 174.631 31.9794 174.631 32.1628C174.631 32.3535 174.569 32.5112 174.444 32.6359C174.305 32.7606 174.143 32.8229 173.96 32.8229C173.784 32.8229 173.626 32.7606 173.487 32.6359C173.362 32.5112 173.3 32.3535 173.3 32.1628C173.3 31.9721 173.362 31.818 173.487 31.7006C173.612 31.5759 173.769 31.5136 173.96 31.5136Z" fill="#E5E5E5"/>
</svg>
