<svg width="28" height="24" viewBox="0 0 28 24" fill="none" xmlns="http://www.w3.org/2000/svg">
<path d="M26.3401 18.0111V12.7512L23.1964 6.58396C23.0379 6.27045 22.7931 6.00674 22.4897 5.8227C22.1863 5.63866 21.8365 5.54165 21.4798 5.54265H17.6241V19.5736H18.4876C18.6969 18.8409 19.1444 18.1952 19.762 17.7349C20.3796 17.2745 21.1336 17.0246 21.9092 17.0231C23.5008 17.0231 24.8504 18.0542 25.303 19.4703C25.9072 19.2477 26.3401 18.6799 26.3401 18.0111ZM21.9092 22.3705C22.7044 22.3705 23.3839 21.8856 23.6651 21.2031C23.7531 20.9885 23.8041 20.7568 23.8041 20.5104C23.8022 20.1803 23.7099 19.8567 23.5367 19.5736C23.371 19.2939 23.1336 19.0617 22.8481 18.8999C22.5626 18.7382 22.2389 18.6525 21.9092 18.6515C21.2136 18.6515 20.6117 19.0251 20.2818 19.5736C20.1084 19.857 20.016 20.181 20.0144 20.5116C20.015 21.0044 20.2148 21.4769 20.57 21.8253C20.9253 22.1738 21.4069 22.3699 21.9092 22.3705ZM15.9631 19.5736V3.17161C15.9631 2.31994 15.257 1.62725 14.3889 1.62725H3.23522C2.36709 1.62725 1.66102 2.31994 1.66102 3.17161V18.0292C1.66102 18.8809 2.36709 19.5736 3.23522 19.5736H4.41009C4.61938 18.8409 5.06685 18.1952 5.68446 17.7349C6.30206 17.2745 7.05601 17.0246 7.83167 17.0231C9.46143 17.0231 10.8354 18.1053 11.2544 19.5736H15.9631ZM7.83167 22.3705C8.62687 22.3705 9.30748 21.8856 9.5876 21.2031C9.67557 20.9885 9.7265 20.7568 9.7265 20.5104C9.72503 20.1804 9.63307 19.8568 9.46027 19.5736C9.29452 19.2938 9.05695 19.0614 8.77122 18.8996C8.48549 18.7379 8.16156 18.6523 7.83167 18.6515C7.13716 18.6515 6.53526 19.0251 6.20422 19.5736C6.03081 19.857 5.93845 20.181 5.93683 20.5116C5.93683 21.0046 6.13647 21.4774 6.49182 21.826C6.84717 22.1746 7.32913 22.3705 7.83167 22.3705ZM24.6826 5.85493L28 12.3662V18.0111C28 19.5498 26.8842 20.8386 25.4049 21.1373C25.2548 21.9398 24.823 22.6653 24.1844 23.1881C23.5459 23.7108 22.7409 23.9977 21.9092 23.9989C21.089 23.9978 20.2942 23.7191 19.6592 23.2097C19.0242 22.7004 18.5879 21.9916 18.424 21.2031H11.3169C11.1534 21.9919 10.7172 22.701 10.0822 23.2107C9.44712 23.7203 8.65213 23.9991 7.83167 24C7.01126 23.9989 6.21639 23.72 5.58137 23.2104C4.94635 22.7008 4.51013 21.9918 4.34642 21.2031H3.23522C2.37756 21.2019 1.55538 20.8671 0.948927 20.2722C0.342471 19.6772 0.0012248 18.8706 0 18.0292V3.17161C0.00153159 2.33052 0.34295 1.52433 0.949406 0.929801C1.55586 0.335269 2.37787 0.000900477 3.23522 0H14.3889C15.2465 0.00090118 16.0687 0.335425 16.6751 0.930203C17.2816 1.52498 17.6229 2.33145 17.6241 3.17275V3.91427H21.4786C22.8445 3.91427 24.0714 4.65806 24.6826 5.85607V5.85493ZM20.9022 7.80469V10.4846H23.6351C23.8555 10.4846 24.0669 10.5705 24.2227 10.7234C24.3786 10.8763 24.4661 11.0837 24.4661 11.2999C24.4661 11.5162 24.3786 11.7236 24.2227 11.8765C24.0669 12.0294 23.8555 12.1153 23.6351 12.1153H20.0723C19.9631 12.1153 19.855 12.0942 19.7542 12.0532C19.6534 12.0122 19.5618 11.9522 19.4846 11.8765C19.4074 11.8007 19.3462 11.7109 19.3044 11.6119C19.2627 11.513 19.2412 11.407 19.2412 11.2999V7.80469C19.2412 7.5886 19.3287 7.38136 19.4844 7.22856C19.6402 7.07576 19.8514 6.98992 20.0717 6.98992C20.2919 6.98992 20.5032 7.07576 20.6589 7.22856C20.8147 7.38136 20.9022 7.5886 20.9022 7.80469Z" fill="#1A1A1A"/>
</svg>
