<svg width="24" height="24" viewBox="0 0 24 24" fill="none" xmlns="http://www.w3.org/2000/svg">
<path d="M12.1135 8.07833C11.8665 8.07862 11.6297 8.17751 11.455 8.3533C11.2804 8.5291 11.1821 8.76745 11.1818 9.01606V14.8269C11.1818 15.3441 11.5996 15.7647 12.1135 15.7647H22.3636V8.07833H12.1135ZM22.3636 17.4117H12.1135C11.4326 17.4108 10.78 17.1382 10.2986 16.6537C9.81715 16.1691 9.54632 15.5122 9.54545 14.8269V9.01606C9.54632 8.33079 9.81715 7.67385 10.2986 7.18929C10.78 6.70473 11.4326 6.43213 12.1135 6.43126H22.3636V3.6521C22.3631 3.12051 22.153 2.61086 21.7796 2.23497C21.4061 1.85908 20.8998 1.64765 20.3716 1.64707H3.62836C2.52982 1.64707 1.63636 2.54747 1.63636 3.6521V20.349C1.63636 21.4536 2.52982 22.3529 3.62836 22.3529H20.3716C20.8996 22.3524 21.4058 22.1411 21.7792 21.7654C22.1526 21.3898 22.3628 20.8804 22.3636 20.349V17.4117ZM3.62836 24C2.6666 23.9988 1.74455 23.6138 1.06438 22.9294C0.384214 22.245 0.00144339 21.317 0 20.349V3.6521C0.0011548 2.68386 0.383798 1.75561 1.064 1.07096C1.7442 0.386309 2.66642 0.00116235 3.62836 0H20.3716C21.3336 0.00116235 22.2558 0.386309 22.936 1.07096C23.6162 1.75561 23.9988 2.68386 24 3.6521V20.349C23.9986 21.317 23.6158 22.245 22.9356 22.9294C22.2554 23.6138 21.3334 23.9988 20.3716 24H3.62836ZM14.4545 12.196C14.4671 12.4787 14.5875 12.7457 14.7907 12.9413C14.994 13.1369 15.2643 13.246 15.5455 13.246C15.8266 13.246 16.097 13.1369 16.3002 12.9413C16.5034 12.7457 16.6238 12.4787 16.6364 12.196C16.6238 11.9133 16.5034 11.6463 16.3002 11.4507C16.097 11.2551 15.8266 11.146 15.5455 11.146C15.2643 11.146 14.994 11.2551 14.7907 11.4507C14.5875 11.6463 14.4671 11.9133 14.4545 12.196ZM12.8182 12.196C12.8182 10.6829 14.0422 9.45088 15.5455 9.45088C17.0498 9.45088 18.2727 10.6829 18.2727 12.196C18.2727 13.7102 17.0498 14.9411 15.5455 14.9411C14.8224 14.9402 14.1292 14.6507 13.6179 14.1361C13.1067 13.6215 12.819 12.9238 12.8182 12.196Z" fill="#1A1A1A"/>
</svg>
