<svg width="13" height="8" viewBox="0 0 13 8" fill="none" xmlns="http://www.w3.org/2000/svg">
<path d="M0.000198568 -0.000109681H0.915183L3.18231 6.35395H3.21281L5.47994 -0.000109681H6.39492L3.71097 7.25876H2.68415L0.000198568 -0.000109681ZM7.1744 -0.000109681H10.3057C11.0309 -0.000109681 11.6002 0.165943 12.0137 0.498049C12.4474 0.850487 12.6643 1.35881 12.6643 2.02302C12.6643 2.4229 12.5525 2.78212 12.3288 3.10067C12.0916 3.41922 11.7629 3.62933 11.3427 3.73099V3.75132C12.034 3.90721 12.4203 4.34776 12.5016 5.07297L12.6135 6.19128C12.6541 6.63183 12.7829 6.98766 12.9998 7.25876H12.095C11.9255 7.00799 11.8273 6.68605 11.8002 6.29295L11.7087 5.32713C11.668 4.89336 11.5155 4.58498 11.2512 4.40198C11.0139 4.22576 10.6649 4.13765 10.204 4.13765H8.00806V7.25876H7.1744V-0.000109681ZM8.00806 0.721711V3.41583H10.204C10.7327 3.41583 11.1427 3.29044 11.4342 3.03967C11.6917 2.80245 11.8205 2.47374 11.8205 2.05352C11.8205 1.6062 11.6951 1.27409 11.4443 1.05721C11.18 0.833543 10.7666 0.721711 10.204 0.721711H8.00806Z" fill="white"/>
</svg>
