<svg width="14" height="14" viewBox="0 0 14 14" fill="none" xmlns="http://www.w3.org/2000/svg">
<rect width="14" height="14" rx="4" fill="#FE8D00"/>
<path d="M7.49896 2.37204L8.6216 4.66628C8.68397 4.8523 8.87108 4.97632 9.05819 4.97632L11.4906 5.34836C11.9895 5.41036 12.1767 6.03043 11.8024 6.40247L10.0561 8.20066C9.93136 8.32467 9.86899 8.51069 9.86899 8.75872L10.3056 11.301C10.3679 11.797 9.86899 12.1691 9.49477 11.9211L7.31185 10.7429C7.12474 10.6809 6.93763 10.6809 6.75052 10.7429L4.56759 11.9211C4.13101 12.1691 3.63205 11.797 3.75679 11.301L4.19338 8.75872C4.25575 8.5727 4.19338 8.38668 4.00627 8.20066L2.19756 6.34046C1.82334 6.03043 2.01045 5.41036 2.50941 5.34836L4.94181 4.97632C5.12892 4.97632 5.31603 4.8523 5.3784 4.66628L6.50105 2.37204C6.68815 1.87599 7.31185 1.87599 7.49896 2.37204Z" fill="white"/>
</svg>
