<?xml version="1.0" standalone="no"?><!DOCTYPE svg PUBLIC "-//W3C//DTD SVG 1.1//EN" "http://www.w3.org/Graphics/SVG/1.1/DTD/svg11.dtd"><svg t="1756980493143" class="icon" viewBox="0 0 1024 1024" version="1.1" xmlns="http://www.w3.org/2000/svg" p-id="1606" xmlns:xlink="http://www.w3.org/1999/xlink" width="200" height="200"><path d="M512 76.893274c-240.302995 0-435.106726 194.803731-435.106726 435.106726s194.803731 435.106726 435.106726 435.106726 435.106726-194.803731 435.106726-435.106726S752.302995 76.893274 512 76.893274zM693.289949 753.72539 330.700841 753.72539c-13.349029 0-24.172539-10.82351-24.172539-24.172539L306.528302 294.446126c0-13.349029 10.82351-24.172539 24.172539-24.172539l362.589109 0c13.349029 0 24.172539 10.82351 24.172539 24.172539L717.462488 468.257753c0 13.349029-10.82351 24.172539-24.172539 24.172539s-24.172539-10.82351-24.172539-24.172539L669.11741 318.619688 354.87338 318.619688l0 386.761648 338.41657 0c13.349029 0 24.172539 10.82351 24.172539 24.172539C717.462488 742.902904 706.638979 753.72539 693.289949 753.72539zM411.280064 486.617913c-10.008958 0-18.128893-8.114818-18.128893-18.129916 0-10.015098 8.119935-18.128893 18.128893-18.128893l124.509758 0c10.008958 0 18.129916 8.114818 18.129916 18.128893 0 10.015098-8.120958 18.129916-18.129916 18.129916L411.280064 486.617913zM483.407802 555.512003c0 10.015098-8.120958 18.129916-18.129916 18.129916l-53.998845 0c-10.008958 0-18.128893-8.114818-18.128893-18.129916 0-10.015098 8.119935-18.128893 18.128893-18.128893l53.998845 0C475.287867 537.382087 483.407802 545.496905 483.407802 555.512003zM411.280064 399.600047c-10.008958 0-18.128893-8.114818-18.128893-18.129916 0-10.015098 8.119935-18.129916 18.128893-18.129916l201.441918 0c10.008958 0 18.129916 8.114818 18.129916 18.129916 0 10.015098-8.120958 18.129916-18.129916 18.129916L411.280064 399.600047zM752.281505 549.114293 626.826212 674.568563c-3.540639 3.540639-8.179286 5.310959-12.817933 5.310959-4.638647 0-9.277294-1.77032-12.817933-5.310959l-64.22065-64.22065c-7.082302-7.076162-7.082302-18.560728 0-25.635867 7.082302-7.082302 18.554588-7.082302 25.635867 0l51.402717 51.401694 112.636337-112.636337c7.082302-7.081279 18.554588-7.081279 25.635867 0C759.362784 530.554588 759.362784 542.03813 752.281505 549.114293z" fill="#FF9100" p-id="1607"></path></svg>