<?xml version="1.0" encoding="UTF-8"?>
<svg width="24px" height="24px" viewBox="0 0 24 24" version="1.1" xmlns="http://www.w3.org/2000/svg">
    <g stroke="none" stroke-width="1" fill="none" fill-rule="evenodd">
        <path d="M12,2 C15.866,2 19,5.134 19,9 C19,14.5 12,22 12,22 C12,22 5,14.5 5,9 C5,5.134 8.134,2 12,2 Z M12,5 C9.79,5 8,6.79 8,9 C8,11.21 9.79,13 12,13 C14.21,13 16,11.21 16,9 C16,6.79 14.21,5 12,5 Z M12,7 C13.105,7 14,7.895 14,9 C14,10.105 13.105,11 12,11 C10.895,11 10,10.105 10,9 C10,7.895 10.895,7 12,7 Z" fill="#EA5C2E"></path>
    </g>
</svg>
