<svg width="15" height="15" viewBox="0 0 15 15" fill="none" xmlns="http://www.w3.org/2000/svg">
<path d="M0 7.5C0 3.35786 3.35786 0 7.5 0C11.6421 0 15 3.35786 15 7.5C15 11.6421 11.6421 15 7.5 15H0V7.5Z" fill="#E10000"/>
<path d="M7.41 2.992C8.136 2.992 8.73367 3.201 9.203 3.619C9.67233 4.04433 9.907 4.598 9.907 5.28C9.907 5.95467 9.65033 6.57067 9.137 7.128C8.83633 7.44333 8.29367 7.865 7.509 8.393C6.51167 9.06033 5.93967 9.66167 5.793 10.197H9.918V11H4.682C4.682 10.274 4.94233 9.625 5.463 9.053C5.80033 8.67167 6.36867 8.206 7.168 7.656C7.79133 7.20867 8.202 6.88233 8.4 6.677C8.80333 6.237 9.005 5.76767 9.005 5.269C9.005 4.79233 8.862 4.422 8.576 4.158C8.29 3.894 7.89033 3.762 7.377 3.762C6.827 3.762 6.41267 3.94533 6.134 4.312C5.81867 4.67133 5.65733 5.19567 5.65 5.885H4.748C4.748 5.01233 4.99367 4.312 5.485 3.784C5.969 3.256 6.61067 2.992 7.41 2.992Z" fill="white"/>
</svg>
