<svg width="21" height="21" viewBox="0 0 21 21" fill="none" xmlns="http://www.w3.org/2000/svg">
<path d="M6.72559 17.709C7.24051 17.709 7.6543 18.1228 7.6543 18.6377C7.65411 19.1525 7.24039 19.5664 6.72559 19.5664C6.21075 19.5664 5.79706 19.1525 5.79688 18.6377C5.79688 18.1227 6.21063 17.709 6.72559 17.709ZM16.7295 17.709C17.2414 17.709 17.6582 18.1236 17.6582 18.6377C17.658 19.1525 17.2443 19.5664 16.7295 19.5664C16.2147 19.5664 15.801 19.1525 15.8008 18.6377C15.8008 18.1227 16.2145 17.709 16.7295 17.709ZM1.01074 0.566406H1.91406C2.70033 0.566631 3.40256 1.18661 3.49902 1.97754L3.5 1.99023L3.50195 2.00195L3.55176 2.29395L3.62305 2.70898H18.3574C18.761 2.70898 19.1269 2.87153 19.3955 3.17676L19.3984 3.17969C19.7072 3.52529 19.8637 4.03712 19.8008 4.59766L18.6719 11.0166L18.6689 11.0303L18.668 11.0439C18.5788 11.7948 17.8851 12.4199 17.1094 12.4199H17.083L17.0566 12.4229L5.72363 13.6416L5.19043 13.6992L5.28418 14.2266L5.38574 14.7969V14.7959C5.46608 15.3384 5.94536 15.8242 6.52344 15.8242H6.52539L12.3516 15.8047H18.1582C18.2926 15.8047 18.363 15.834 18.3857 15.8486C18.3863 15.8528 18.3867 15.8589 18.3867 15.8672C18.3867 15.8943 18.381 15.9086 18.3779 15.915C18.3746 15.9219 18.3682 15.9311 18.3555 15.9414C18.3268 15.9644 18.262 15.9951 18.1582 15.9951H6.54492C6.15359 15.9951 5.85246 15.8599 5.63477 15.6445C5.41247 15.4244 5.25042 15.0925 5.19824 14.6641L5.19629 14.6543L3.9834 6.125L3.98242 6.11719L3.98047 6.11035L3.28906 2.12402H3.28809C3.23475 1.75881 2.96446 1.4813 2.75781 1.32422C2.53889 1.15789 2.22109 0.995243 1.91016 0.995117H1.01074C0.891535 0.994892 0.796875 0.899539 0.796875 0.780273C0.7971 0.661209 0.891677 0.566631 1.01074 0.566406Z" stroke="#4D4D4D"/>
</svg>
