<svg width="21" height="20" viewBox="0 0 21 20" fill="none" xmlns="http://www.w3.org/2000/svg">
<path d="M6.42871 17.6426C6.94363 17.6426 7.35742 18.0564 7.35742 18.5713C7.35723 19.0861 6.94351 19.5 6.42871 19.5C5.91387 19.5 5.50019 19.0861 5.5 18.5713C5.5 18.0563 5.91375 17.6426 6.42871 17.6426ZM16.4326 17.6426C16.9446 17.6426 17.3613 18.0572 17.3613 18.5713C17.3611 19.0861 16.9474 19.5 16.4326 19.5C15.9178 19.5 15.5041 19.0861 15.5039 18.5713C15.5039 18.0563 15.9177 17.6426 16.4326 17.6426ZM0.713867 0.5H1.61719C2.40345 0.500224 3.10569 1.1202 3.20215 1.91113L3.20312 1.92383L3.20508 1.93555L3.25488 2.22754L3.32617 2.64258H18.0605C18.4641 2.64258 18.8301 2.80512 19.0986 3.11035L19.1016 3.11328C19.4103 3.45889 19.5668 3.97072 19.5039 4.53125L18.375 10.9502L18.3721 10.9639L18.3711 10.9775C18.2819 11.7284 17.5883 12.3535 16.8125 12.3535H16.7979L16.7822 12.3545L5.44922 13.0537L4.9082 13.0869L4.98535 13.623L5.10449 14.4561C5.17777 15.0048 5.66054 15.4999 6.24414 15.5H17.8613C17.9807 15.5001 18.0752 15.5955 18.0752 15.7148C18.075 15.834 17.9805 15.9286 17.8613 15.9287H6.24805C5.47513 15.9287 4.77979 15.3105 4.68262 14.5137L4.68066 14.5039L3.46777 5.97461L3.4668 5.9668L3.46484 5.95898L2.77344 1.97266C2.73263 1.67792 2.58124 1.4254 2.38867 1.24707C2.1916 1.06463 1.91785 0.928818 1.61328 0.928711H0.713867C0.59466 0.928486 0.5 0.833132 0.5 0.713867C0.500225 0.594803 0.594802 0.500225 0.713867 0.5Z" stroke="#4D4D4D"/>
</svg>
