<svg width="21" height="20" viewBox="0 0 21 20" fill="none" xmlns="http://www.w3.org/2000/svg">
<path d="M6.42863 17.1423C5.63753 17.1423 5.00005 17.7798 5.00005 18.5709C5.00005 19.362 5.63753 19.9995 6.42863 19.9995C7.21973 19.9995 7.85722 19.362 7.85722 18.5709C7.85722 17.7798 7.21973 17.1423 6.42863 17.1423Z" fill="#FF840B"/>
<path d="M16.4325 17.1423C15.6414 17.1423 15.004 17.7798 15.004 18.5709C15.004 19.362 15.6414 19.9995 16.4325 19.9995C17.2236 19.9995 17.8611 19.362 17.8611 18.5709C17.8611 17.7798 17.2198 17.1423 16.4325 17.1423Z" fill="#FF840B"/>
<path d="M19.4741 2.78037C19.1093 2.36562 18.6062 2.14288 18.0609 2.14288H3.74812L3.6982 1.85102C3.57147 0.8103 2.65748 0 1.61676 0H0.714293C0.318744 0 0 0.318744 0 0.714293C0 1.10984 0.318744 1.42859 0.714293 1.42859H1.61292C1.92398 1.42859 2.24273 1.71277 2.28113 2.05839L2.97238 6.04461L4.18591 14.5739C4.31264 15.6146 5.21511 16.4287 6.24815 16.4287H17.8612C18.2567 16.4287 18.5755 16.11 18.5755 15.7144C18.5755 15.3189 18.2567 15.0002 17.8612 15.0002H6.24431C5.94092 15.0002 5.64138 14.7198 5.59914 14.3857L5.48009 13.5524L16.8128 12.8534C17.842 12.8534 18.7483 12.0393 18.8673 11.037L20.0002 4.60066C20.0809 3.91325 19.8927 3.24888 19.4741 2.78037Z" fill="#FF840B"/>
</svg>
