<svg width="20" height="20" viewBox="0 0 20 20" fill="none" xmlns="http://www.w3.org/2000/svg">
<path d="M1.27539 12.7676H6.41992C6.64697 12.7676 6.82664 12.8414 6.98633 12.9971C7.14267 13.1495 7.21582 13.323 7.21582 13.5469V18.7217C7.21581 18.9454 7.14255 19.1181 6.98633 19.2705C6.82663 19.4262 6.647 19.5 6.41992 19.5H1.27539C1.04867 19.4999 0.875532 19.4266 0.724609 19.2754C0.573572 19.124 0.500007 18.95 0.5 18.7217V13.5469C0.5 13.3186 0.573566 13.1435 0.724609 12.9922C0.875477 12.8411 1.04878 12.7676 1.27539 12.7676ZM11.584 12.7676H16.7285C16.9553 12.7676 17.1293 12.8409 17.2803 12.9922C17.4312 13.1435 17.5039 13.3187 17.5039 13.5469V18.7217C17.5039 18.9498 17.4311 19.1241 17.2803 19.2754C17.1293 19.4267 16.9553 19.5 16.7285 19.5H11.584C11.357 19.4999 11.1772 19.4262 11.0176 19.2705C10.8614 19.1181 10.7881 18.9454 10.7881 18.7217V13.5469C10.7881 13.323 10.8613 13.1495 11.0176 12.9971C11.1772 12.8414 11.357 12.7677 11.584 12.7676ZM14.8047 0.5C15.0299 0.500035 15.2235 0.574949 15.4062 0.745117H15.4072L19.2344 4.58008C19.42 4.76611 19.5 4.96429 19.5 5.19629C19.4999 5.42711 19.4214 5.61339 19.2441 5.78223H19.2432L19.2344 5.79102L15.4072 9.62598C15.2196 9.81398 15.0256 9.89156 14.8047 9.8916C14.5837 9.8916 14.3888 9.81403 14.2012 9.62598L10.374 5.79102C10.2079 5.62437 10.13 5.43553 10.1299 5.19629C10.1299 4.95609 10.2082 4.75447 10.3828 4.57031L14.1924 0.753906C14.3781 0.577121 14.5754 0.5 14.8047 0.5ZM1.27539 2.45898H6.41992C6.6469 2.45902 6.82668 2.53194 6.98633 2.6875C7.14267 2.83993 7.21582 3.01345 7.21582 3.2373V8.3916C7.21582 8.61578 7.14222 8.79495 6.98145 8.95605C6.82074 9.11709 6.64262 9.19039 6.41992 9.19043H1.27539C1.05319 9.19036 0.88147 9.11738 0.729492 8.96094C0.574018 8.80082 0.5 8.62014 0.5 8.3916V3.2373C0.5 3.00902 0.573566 2.83397 0.724609 2.68262C0.875443 2.53165 1.04886 2.45906 1.27539 2.45898Z" stroke="#4D4D4D"/>
</svg>
