<svg width="20" height="20" viewBox="0 0 20 20" fill="none" xmlns="http://www.w3.org/2000/svg">
<path d="M6.41975 1.95876C6.77641 1.95876 7.08162 2.08247 7.33539 2.3299C7.58916 2.57732 7.71605 2.87973 7.71605 3.23711V8.39175C7.71605 8.74914 7.58916 9.05498 7.33539 9.30928C7.08162 9.56357 6.77641 9.69072 6.41975 9.69072H1.27572C0.919067 9.69072 0.617284 9.56357 0.37037 9.30928C0.123457 9.05498 -1.3838e-08 8.74914 0 8.39175V3.23711C0 2.87973 0.123457 2.57732 0.37037 2.3299C0.617284 2.08247 0.919067 1.95876 1.27572 1.95876H6.41975ZM6.41975 12.268C6.77641 12.268 7.08162 12.3918 7.33539 12.6392C7.58916 12.8866 7.71605 13.189 7.71605 13.5464V18.7216C7.71605 19.079 7.58916 19.3814 7.33539 19.6289C7.08162 19.8763 6.77641 20 6.41975 20H1.27572C0.919067 20 0.617284 19.8763 0.37037 19.6289C0.123457 19.3814 -1.3838e-08 19.079 0 18.7216V13.5464C0 13.189 0.123457 12.8866 0.37037 12.6392C0.617284 12.3918 0.919067 12.268 1.27572 12.268H6.41975ZM16.7284 12.268C17.085 12.268 17.3868 12.3918 17.6337 12.6392C17.8807 12.8866 18.0041 13.189 18.0041 13.5464V18.7216C18.0041 19.079 17.8807 19.3814 17.6337 19.6289C17.3868 19.8763 17.085 20 16.7284 20H11.5844C11.2277 20 10.9225 19.8763 10.6687 19.6289C10.415 19.3814 10.2881 19.079 10.2881 18.7216V13.5464C10.2881 13.189 10.415 12.8866 10.6687 12.6392C10.9225 12.3918 11.2277 12.268 11.5844 12.268H16.7284ZM19.5885 4.2268C19.8628 4.50172 20 4.82474 20 5.19588C20 5.56701 19.8628 5.88316 19.5885 6.14433L15.7613 9.97938C15.487 10.2543 15.168 10.3918 14.8045 10.3918C14.441 10.3918 14.1221 10.2543 13.8477 9.97938L10.0206 6.14433C9.75995 5.88316 9.62963 5.56701 9.62963 5.19588C9.62963 4.82474 9.75995 4.50172 10.0206 4.2268L13.8477 0.391753C14.1221 0.130584 14.441 0 14.8045 0C15.168 0 15.487 0.130584 15.7613 0.391753L19.5885 4.2268Z" fill="#FF840B"/>
</svg>
