<svg width="20" height="20" viewBox="0 0 20 20" fill="none" xmlns="http://www.w3.org/2000/svg">
<path d="M10 0.5C10.2811 0.5 10.5551 0.587813 10.7832 0.750977L18.502 6.27344C18.8108 6.4944 19.0629 6.78526 19.2363 7.12207C19.4097 7.45876 19.4999 7.8317 19.5 8.20996V17.1152C19.4998 18.4307 18.4293 19.4999 17.1055 19.5H13.6582V15.8037C13.6582 13.7878 12.0185 12.1562 10 12.1562C7.98147 12.1563 6.3418 13.7878 6.3418 15.8037V19.5H2.89453C1.57067 19.4999 0.500232 18.4307 0.5 17.1152V8.20996L0.503906 8.06836C0.523636 7.739 0.612013 7.41666 0.763672 7.12207C0.937116 6.78522 1.18914 6.49442 1.49805 6.27344L9.2168 0.750977C9.4449 0.587812 9.71886 0.5 10 0.5Z" stroke="#4D4D4D"/>
</svg>
