<svg width="18" height="20" viewBox="0 0 18 20" fill="none" xmlns="http://www.w3.org/2000/svg">
<path d="M11.0596 11.543C14.6314 11.5432 17.5 14.3219 17.5 17.6895V18.084C17.5 18.3945 17.3824 18.6102 17.1396 18.792C16.8704 18.9936 16.4404 19.1551 15.834 19.2695C14.6211 19.4983 12.9406 19.5 11.0596 19.5H6.94043C4.98217 19.5 3.30319 19.498 2.11035 19.2695C1.51474 19.1554 1.10169 18.995 0.845703 18.7969C0.616409 18.6192 0.5 18.4037 0.5 18.084V17.6895C0.5 14.32 3.36853 11.5432 6.94043 11.543H11.0596ZM8.79492 0.5C11.5692 0.500193 13.7898 2.65879 13.79 5.26758C13.79 7.87636 11.5695 10.034 8.79395 10.0342C6.01837 10.0339 3.79688 7.87525 3.79688 5.26758C3.79711 2.65885 6.01928 0.5 8.79492 0.5Z" stroke="#4D4D4D"/>
</svg>
